<svg id="eZcM618NW7p1" xmlns="http://www.w3.org/2000/svg" xmlns:xlink="http://www.w3.org/1999/xlink" viewBox="0 0 32 32" shape-rendering="geometricPrecision" text-rendering="geometricPrecision" width="32" height="32"><g transform="matrix(.106579 0 0 0.097844-1.492454 0.717943)"><path d="M41.33425,268.225585L40.646492,64.649243Q35.832188,50.894085,54.401651,50.206327t230.220119-1.375515q19.94498,32.32462,0,33.012378t-215.089445.687757l-.687758,185.694636q-14.442916,12.379641-14.442916,12.379641c0,0-13.067401-6.877572-13.067401-12.379639Z" transform="translate(-2.998136-14.735657)" stroke="#55455d" stroke-width="3"/><path d="M41.33425,268.225585L40.646492,64.649243Q35.832188,50.894085,54.401651,50.206327t202.888583-1.375515q19.94498,32.32462,0,33.012378t-187.757909.687757l-.687758,185.694636q-14.442916,12.379641-14.442916,12.379641c0,0-13.067401-6.877572-13.067401-12.379639Z" transform="matrix(.849674 0 0 0.827728 37.039726 32.947509)" stroke="#55455d" stroke-width="3"/><path d="M51.403515,265.21231v-64.731741q-1.598532-25.213041,15.130674-25.213041t196.807763,0L265.055066,150q1.440745-14.352965,14.407452-14.352965t9.364844,14.352965v42.55647q3.601863,10.805589-7.203726,10.805589t-198.360241,0v61.850251q-16.729206,13.068499-16.729206,13.068499c0,0-15.130674-13.890664-15.130674-13.068499Z" fill="#f00" stroke="#55455d" stroke-width="3"/><path d="M102.904158,265.21231v-104.437793l15.826769-25.127483h113.162586q12.12419-.838997,12.12419,14.352964t-13.240359,10.774519h-95.548119v104.437792q-16.498298,13.068499-16.498298,13.068499t-15.826769-13.068498Z" transform="translate(0 0.000001)" fill="#f00" stroke="#55455d" stroke-width="3"/></g></svg>