<?xml version='1.0' encoding='ascii'?>
<svg xmlns="http://www.w3.org/2000/svg" version="1.1" width="1920" height="1080">
    <g id="ViewLayer_LineSet" xmlns:inkscape="http://www.inkscape.org/namespaces/inkscape" inkscape:groupmode="lineset" inkscape:label="ViewLayer_LineSet">
        <g xmlns:inkscape="http://www.inkscape.org/namespaces/inkscape" inkscape:groupmode="layer" id="strokes" inkscape:label="strokes">
            <path fill="none" stroke-width="3.0" stroke-linecap="butt" stroke-opacity="1.0" stroke="rgb(0, 0, 0)" stroke-linejoin="round" d=" M 1588.290, 717.617 1578.290, 717.617 1568.290, 717.617 1558.290, 717.617 1548.290, 717.617 1538.290, 717.617 1528.290, 717.617 1518.290, 717.617 1508.290, 717.617 1498.290, 717.617 1488.290, 717.617 1478.290, 717.617 1468.290, 717.617 1458.290, 717.617 1448.290, 717.617 1438.290, 717.617 1428.290, 717.617 1418.290, 717.617 1408.290, 717.617 1398.290, 717.617 1388.290, 717.617 1378.290, 717.617 1368.290, 717.617 1358.290, 717.617 1348.290, 717.617 1338.290, 717.617 1328.290, 717.617 1318.290, 717.617 1308.290, 717.617 1298.290, 717.617 1288.290, 717.617 1278.290, 717.617 1268.290, 717.617 1258.290, 717.617 1248.290, 717.617 1238.290, 717.617 1228.290, 717.617 1218.290, 717.617 1208.290, 717.617 1198.290, 717.617 1188.290, 717.617 1178.290, 717.617 1168.290, 717.617 1158.290, 717.617 1148.290, 717.617 1138.290, 717.617 1128.290, 717.617 1118.290, 717.617 1108.290, 717.617 1098.290, 717.617 1088.290, 717.617 1078.290, 717.617 1068.290, 717.617 1058.290, 717.617 1048.290, 717.617 1038.290, 717.617 1028.290, 717.617 1018.290, 717.617 1008.290, 717.617 998.290, 717.617 988.290, 717.617 978.290, 717.617 968.290, 717.617 958.290, 717.617 948.290, 717.617 938.290, 717.617 928.290, 717.617 918.290, 717.617 908.290, 717.617 898.290, 717.617 888.290, 717.617 878.290, 717.617 868.290, 717.617 858.290, 717.617 848.290, 717.617 838.290, 717.617 828.290, 717.617 818.290, 717.617 808.290, 717.617 798.290, 717.617 788.290, 717.617 778.290, 717.617 768.290, 717.617 758.290, 717.617 748.290, 717.617 738.290, 717.617 728.290, 717.617 718.290, 717.617 708.290, 717.617 698.290, 717.617 688.290, 717.617 678.290, 717.617 668.290, 717.617 658.290, 717.617 648.290, 717.617 638.290, 717.617 628.290, 717.617 618.290, 717.617 608.290, 717.617 598.290, 717.617 588.290, 717.617 578.290, 717.617 568.290, 717.617 558.290, 717.617 548.290, 717.617 538.290, 717.617 528.290, 717.617 518.290, 717.617 508.290, 717.617 498.290, 717.617 488.290, 717.617 478.290, 717.617 468.290, 717.617 458.290, 717.617 448.290, 717.617 438.290, 717.617 428.290, 717.617 418.290, 717.617 408.290, 717.617 398.290, 717.617 388.290, 717.617 378.290, 717.617 368.290, 717.617 358.290, 717.617 348.290, 717.617 331.710, 717.617 322.088, 720.338 312.465, 723.058 302.842, 725.778 293.219, 728.499 283.596, 731.219 273.973, 733.939 264.350, 736.660 254.728, 739.380 244.346, 742.315 244.346, 752.315 244.346, 762.315 244.346, 772.315 244.346, 782.315 244.346, 792.315 244.346, 802.315 244.346, 804.160 254.346, 804.160 264.346, 804.160 274.346, 804.160 276.570, 804.160 286.570, 804.160 296.570, 804.160 306.570, 804.160 316.570, 804.160 326.570, 804.160 336.570, 804.160 346.570, 804.160 356.684, 804.160 366.684, 804.160 376.684, 804.160 386.684, 804.160 396.684, 804.160 406.684, 804.160 416.684, 804.160 426.684, 804.160 436.684, 804.160 446.684, 804.160 456.684, 804.160 466.684, 804.160 476.684, 804.160 486.684, 804.160 496.684, 804.160 506.684, 804.160 516.684, 804.160 526.684, 804.160 536.684, 804.160 546.684, 804.160 556.684, 804.160 566.684, 804.160 576.684, 804.160 586.684, 804.160 596.684, 804.160 606.684, 804.160 616.684, 804.160 626.684, 804.160 636.684, 804.160 646.684, 804.160 656.684, 804.160 666.684, 804.160 676.684, 804.160 686.684, 804.160 696.684, 804.160 706.684, 804.160 716.684, 804.160 726.684, 804.160 736.684, 804.160 746.684, 804.160 756.684, 804.160 766.684, 804.160 776.684, 804.160 786.684, 804.160 796.684, 804.160 806.684, 804.160 816.684, 804.160 826.684, 804.160 836.684, 804.160 846.684, 804.160 856.684, 804.160 866.684, 804.160 876.684, 804.160 886.684, 804.160 896.684, 804.160 906.684, 804.160 916.684, 804.160 926.684, 804.160 936.684, 804.160 946.684, 804.160 956.684, 804.160 966.684, 804.160 976.684, 804.160 986.684, 804.160 996.684, 804.160 1006.684, 804.160 1016.684, 804.160 1026.684, 804.160 1036.684, 804.160 1046.684, 804.160 1056.684, 804.160 1066.684, 804.160 1076.684, 804.160 1086.684, 804.160 1096.684, 804.160 1106.684, 804.160 1116.684, 804.160 1126.684, 804.160 1136.684, 804.160 1146.684, 804.160 1156.684, 804.160 1166.684, 804.160 1176.684, 804.160 1186.684, 804.160 1196.684, 804.160 1206.684, 804.160 1216.684, 804.160 1226.684, 804.160 1236.684, 804.160 1246.684, 804.160 1256.684, 804.160 1266.684, 804.160 1276.684, 804.160 1286.684, 804.160 1296.684, 804.160 1306.684, 804.160 1316.684, 804.160 1326.684, 804.160 1336.684, 804.160 1346.684, 804.160 1356.684, 804.160 1366.684, 804.160 1376.684, 804.160 1386.684, 804.160 1396.684, 804.160 1406.684, 804.160 1416.684, 804.160 1426.684, 804.160 1436.684, 804.160 1446.684, 804.160 1456.684, 804.160 1466.684, 804.160 1476.684, 804.160 1486.684, 804.160 1496.684, 804.160 1506.684, 804.160 1516.684, 804.160 1526.684, 804.160 1536.684, 804.160 1546.684, 804.160 1563.316, 804.160 1573.316, 804.160 1583.316, 804.160 1593.316, 804.160 1603.316, 804.160 1613.316, 804.160 1623.316, 804.160 1633.316, 804.160 1643.430, 804.160 1653.430, 804.160 1663.430, 804.160 1673.430, 804.160 1675.654, 804.160 1675.654, 794.160 1675.654, 784.160 1675.654, 774.160 1675.654, 764.160 1675.654, 754.160 1675.654, 744.160 1675.654, 742.315 1666.031, 739.595 1656.408, 736.874 1646.785, 734.154 1637.162, 731.433 1627.539, 728.713 1617.917, 725.993 1608.294, 723.272 1598.671, 720.552 1588.290, 717.617 " />
            <path fill="none" stroke-width="3.0" stroke-linecap="butt" stroke-opacity="1.0" stroke="rgb(0, 0, 0)" stroke-linejoin="round" d=" M 244.346, 742.315 254.346, 742.315 264.346, 742.315 274.346, 742.315 284.346, 742.315 294.346, 742.315 304.346, 742.315 314.346, 742.315 324.346, 742.315 334.346, 742.315 344.346, 742.315 354.346, 742.315 364.346, 742.315 374.346, 742.315 384.346, 742.315 394.346, 742.315 404.346, 742.315 414.346, 742.315 424.346, 742.315 434.346, 742.315 444.346, 742.315 454.346, 742.315 464.346, 742.315 474.346, 742.315 484.346, 742.315 494.346, 742.315 504.346, 742.315 514.346, 742.315 524.346, 742.315 534.346, 742.315 544.346, 742.315 554.346, 742.315 564.346, 742.315 574.346, 742.315 584.346, 742.315 594.346, 742.315 604.346, 742.315 614.346, 742.315 624.346, 742.315 634.346, 742.315 644.346, 742.315 654.346, 742.315 664.346, 742.315 674.346, 742.315 684.346, 742.315 694.346, 742.315 704.346, 742.315 714.346, 742.315 724.346, 742.315 734.346, 742.315 744.346, 742.315 754.346, 742.315 764.346, 742.315 774.346, 742.315 784.346, 742.315 794.346, 742.315 804.346, 742.315 814.346, 742.315 824.346, 742.315 834.346, 742.315 844.346, 742.315 854.346, 742.315 864.346, 742.315 874.346, 742.315 884.346, 742.315 894.346, 742.315 904.346, 742.315 914.346, 742.315 924.346, 742.315 934.346, 742.315 944.346, 742.315 954.346, 742.315 964.346, 742.315 974.346, 742.315 984.346, 742.315 994.346, 742.315 1004.346, 742.315 1014.346, 742.315 1024.346, 742.315 1034.346, 742.315 1044.346, 742.315 1054.346, 742.315 1064.346, 742.315 1074.346, 742.315 1084.346, 742.315 1094.346, 742.315 1104.346, 742.315 1114.346, 742.315 1124.346, 742.315 1134.346, 742.315 1144.346, 742.315 1154.346, 742.315 1164.346, 742.315 1174.346, 742.315 1184.346, 742.315 1194.346, 742.315 1204.346, 742.315 1214.346, 742.315 1224.346, 742.315 1234.346, 742.315 1244.346, 742.315 1254.346, 742.315 1264.346, 742.315 1274.346, 742.315 1284.346, 742.315 1294.346, 742.315 1304.346, 742.315 1314.346, 742.315 1324.346, 742.315 1334.346, 742.315 1344.346, 742.315 1354.346, 742.315 1364.346, 742.315 1374.346, 742.315 1384.346, 742.315 1394.346, 742.315 1404.346, 742.315 1414.346, 742.315 1424.346, 742.315 1434.346, 742.315 1444.346, 742.315 1454.346, 742.315 1464.346, 742.315 1474.346, 742.315 1484.346, 742.315 1494.346, 742.315 1504.346, 742.315 1514.346, 742.315 1524.346, 742.315 1534.346, 742.315 1544.346, 742.315 1554.346, 742.315 1564.346, 742.315 1574.346, 742.315 1584.346, 742.315 1594.346, 742.315 1604.346, 742.315 1614.346, 742.315 1624.346, 742.315 1634.346, 742.315 1644.346, 742.315 1654.346, 742.315 1675.654, 742.315 " />
            <path fill="none" stroke-width="3.0" stroke-linecap="butt" stroke-opacity="1.0" stroke="rgb(0, 0, 0)" stroke-linejoin="round" d=" M 276.570, 804.160 276.570, 814.160 276.570, 824.160 276.570, 834.160 276.570, 844.160 276.570, 854.160 276.570, 864.160 276.570, 874.160 276.570, 884.160 276.570, 894.160 276.570, 904.160 276.570, 914.160 276.570, 924.160 276.570, 934.160 276.570, 944.160 276.570, 954.160 276.570, 964.160 276.570, 974.160 276.570, 984.160 276.570, 994.160 276.570, 1004.160 276.570, 1014.160 276.570, 1024.160 276.570, 1034.160 276.570, 1044.160 276.570, 1054.160 276.570, 1064.160 276.570, 1068.486 286.570, 1068.486 296.570, 1068.486 306.570, 1068.486 316.570, 1068.486 326.570, 1068.486 336.570, 1068.486 346.570, 1068.486 356.570, 1068.486 366.570, 1068.486 376.570, 1068.486 386.570, 1068.486 396.570, 1068.486 406.570, 1068.486 416.570, 1068.486 426.570, 1068.486 436.570, 1068.486 446.570, 1068.486 456.570, 1068.486 466.570, 1068.486 476.570, 1068.486 486.570, 1068.486 496.570, 1068.486 506.570, 1068.486 516.570, 1068.486 526.570, 1068.486 536.570, 1068.486 546.570, 1068.486 556.570, 1068.486 566.570, 1068.486 576.570, 1068.486 586.570, 1068.486 596.570, 1068.486 606.570, 1068.486 616.570, 1068.486 626.570, 1068.486 636.570, 1068.486 646.570, 1068.486 656.570, 1068.486 666.570, 1068.486 676.570, 1068.486 686.570, 1068.486 696.570, 1068.486 706.570, 1068.486 716.570, 1068.486 726.570, 1068.486 736.570, 1068.486 746.570, 1068.486 756.570, 1068.486 766.570, 1068.486 776.570, 1068.486 786.570, 1068.486 796.570, 1068.486 806.570, 1068.486 816.570, 1068.486 826.570, 1068.486 836.570, 1068.486 846.570, 1068.486 856.570, 1068.486 866.570, 1068.486 876.570, 1068.486 886.570, 1068.486 896.570, 1068.486 906.570, 1068.486 916.570, 1068.486 926.570, 1068.486 936.570, 1068.486 946.570, 1068.486 956.570, 1068.486 966.570, 1068.486 976.570, 1068.486 986.570, 1068.486 996.570, 1068.486 1006.570, 1068.486 1016.570, 1068.486 1026.570, 1068.486 1036.570, 1068.486 1046.570, 1068.486 1056.570, 1068.486 1066.570, 1068.486 1076.570, 1068.486 1086.570, 1068.486 1096.570, 1068.486 1106.570, 1068.486 1116.570, 1068.486 1126.570, 1068.486 1136.570, 1068.486 1146.570, 1068.486 1156.570, 1068.486 1166.570, 1068.486 1176.570, 1068.486 1186.570, 1068.486 1196.570, 1068.486 1206.570, 1068.486 1216.570, 1068.486 1226.570, 1068.486 1236.570, 1068.486 1246.570, 1068.486 1256.570, 1068.486 1266.570, 1068.486 1276.570, 1068.486 1286.570, 1068.486 1296.570, 1068.486 1306.570, 1068.486 1316.570, 1068.486 1326.570, 1068.486 1336.570, 1068.486 1346.570, 1068.486 1356.570, 1068.486 1366.570, 1068.486 1376.570, 1068.486 1386.570, 1068.486 1396.570, 1068.486 1406.570, 1068.486 1416.570, 1068.486 1426.570, 1068.486 1436.570, 1068.486 1446.570, 1068.486 1456.570, 1068.486 1466.570, 1068.486 1476.570, 1068.486 1486.570, 1068.486 1496.570, 1068.486 1506.570, 1068.486 1516.570, 1068.486 1526.570, 1068.486 1536.570, 1068.486 1546.570, 1068.486 1556.570, 1068.486 1566.570, 1068.486 1576.570, 1068.486 1586.570, 1068.486 1596.570, 1068.486 1606.570, 1068.486 1616.570, 1068.486 1626.570, 1068.486 1643.430, 1068.486 1643.430, 1058.486 1643.430, 1048.486 1643.430, 1038.486 1643.430, 1028.486 1643.430, 1018.486 1643.430, 1008.486 1643.430, 998.486 1643.430, 988.486 1643.430, 978.486 1643.430, 968.486 1643.430, 958.486 1643.430, 948.486 1643.430, 938.486 1643.430, 928.486 1643.430, 918.486 1643.430, 908.486 1643.430, 898.486 1643.430, 888.486 1643.430, 878.486 1643.430, 868.486 1643.430, 858.486 1643.430, 848.486 1643.430, 838.486 1643.430, 828.486 1643.430, 818.486 1643.430, 808.486 1643.430, 804.160 " />
        </g>
    </g>
</svg>
